<svg xmlns="http://www.w3.org/2000/svg" viewBox="0 0 281.47 52.24">
  <defs>
    <style>
      .cls-1 {
        fill: #00f9ff;
      }
    </style>
  </defs>
  <g id="Capa_2" data-name="Capa 2">
    <g id="Capa_1-2" data-name="Capa 1">
      <g>
        <polygon class="cls-1" points="71.02 24.15 76.85 24.15 76.85 5.63 84.15 5.63 84.15 0.61 63.75 0.61 63.75 5.63 71.02 5.63 71.02 24.15"/>
        <polygon class="cls-1" points="105.78 19.21 92.44 19.21 92.44 14.57 104.07 14.57 104.07 9.7 92.44 9.7 92.44 5.53 105.58 5.53 105.58 0.61 86.61 0.61 86.61 24.15 105.78 24.15 105.78 19.21"/>
        <path class="cls-1" d="M119.74,24.55a14,14,0,0,0,5.46-1A8.33,8.33,0,0,0,129,20.42a9.4,9.4,0,0,0,1.38-5.23v-.44h-5.64v.44a4.66,4.66,0,0,1-.6,2.45,3.76,3.76,0,0,1-1.69,1.48,6.48,6.48,0,0,1-2.69.52,6.14,6.14,0,0,1-3.22-.75,4.4,4.4,0,0,1-1.82-2.2,10.23,10.23,0,0,1-.62-3.81v-1a10,10,0,0,1,.61-3.74,4.45,4.45,0,0,1,1.83-2.22,6.34,6.34,0,0,1,3.26-.76,5.75,5.75,0,0,1,2.53.53A3.76,3.76,0,0,1,124,7.16a4.73,4.73,0,0,1,.58,2.45v.44h5.84V9.61A9.15,9.15,0,0,0,129,4.38a8.63,8.63,0,0,0-3.84-3.14,13.63,13.63,0,0,0-5.39-1c-3.65,0-6.52,1-8.55,3s-3,5.09-3,9.15a15.26,15.26,0,0,0,1.35,6.84,8.73,8.73,0,0,0,4,4A14,14,0,0,0,119.74,24.55Z"/>
        <polygon class="cls-1" points="148.33 9.6 139.17 9.6 139.17 0.61 133.37 0.61 133.37 24.15 139.17 24.15 139.17 14.64 148.33 14.64 148.33 24.15 154.13 24.15 154.13 0.61 148.33 0.61 148.33 9.6"/>
        <path class="cls-1" d="M173.49,14.07l-.29-.41a7.81,7.81,0,0,0-.5-.65L163.46.61h-5.19V24.15h5.54V10.59c.2.31.4.6.59.87l9.45,12.69H179V.61h-5.54Z"/>
        <path class="cls-1" d="M200.63,23.21a9.37,9.37,0,0,0,4.18-4.08,14.41,14.41,0,0,0,1.44-6.75,14.41,14.41,0,0,0-1.44-6.79,9.32,9.32,0,0,0-4.18-4.06,16.41,16.41,0,0,0-12.85,0,9.25,9.25,0,0,0-4.19,4.06,14.29,14.29,0,0,0-1.44,6.79,14.29,14.29,0,0,0,1.44,6.75,9.29,9.29,0,0,0,4.19,4.08,16.07,16.07,0,0,0,12.85,0Zm-11-5.28a5.52,5.52,0,0,1-1.14-2.1,9.91,9.91,0,0,1-.4-2.92v-1a10.33,10.33,0,0,1,.4-3,5.4,5.4,0,0,1,1.14-2.09,4.76,4.76,0,0,1,1.88-1.26,7.67,7.67,0,0,1,2.65-.43,7.76,7.76,0,0,1,2.68.43,4.91,4.91,0,0,1,1.88,1.26,5,5,0,0,1,.67.94,5.6,5.6,0,0,1,.27.55,6.32,6.32,0,0,1,.22.61,9.87,9.87,0,0,1,.41,3v1a9.62,9.62,0,0,1-.41,2.92,5.69,5.69,0,0,1-1.16,2.1,4.68,4.68,0,0,1-1.88,1.27,7.53,7.53,0,0,1-2.68.44,7.43,7.43,0,0,1-2.65-.44A4.68,4.68,0,0,1,189.65,17.93Z"/>
        <polygon class="cls-1" points="71.5 42.26 83.12 42.26 83.12 37.38 71.5 37.38 71.5 33.22 84.64 33.22 84.64 28.3 65.66 28.3 65.66 51.84 84.84 51.84 84.84 46.9 71.5 46.9 71.5 42.26"/>
        <polygon class="cls-1" points="109.25 28.3 102.52 28.3 98.02 35.23 93.48 28.3 86.4 28.3 94.07 39.48 85.61 51.84 92.36 51.84 97.62 43.7 102.92 51.84 110 51.84 101.54 39.48 109.25 28.3"/>
        <path class="cls-1" d="M128.05,29.27a8.75,8.75,0,0,0-4.29-1H111.53V51.84h5.8V44h6.27a9,9,0,0,0,4.34-1,6.68,6.68,0,0,0,2.73-2.77,8.72,8.72,0,0,0,.93-4.12,8.87,8.87,0,0,0-.89-4.09A6.4,6.4,0,0,0,128.05,29.27Zm-2.36,7.51A2.5,2.5,0,0,1,122.94,39h-5.61V33.21h5.61a3.21,3.21,0,0,1,1.58.35h0a2.05,2.05,0,0,1,.89.93,3.65,3.65,0,0,1,.32,1.62A4.73,4.73,0,0,1,125.69,36.78Z"/>
        <polygon class="cls-1" points="139.86 42.26 151.48 42.26 151.48 37.38 139.86 37.38 139.86 33.22 153 33.22 153 28.3 134.02 28.3 134.02 51.84 153.2 51.84 153.2 46.9 139.86 46.9 139.86 42.26"/>
        <path class="cls-1" d="M176.32,40a8.09,8.09,0,0,0,1.05-4.14,8.4,8.4,0,0,0-.87-3.88,6.19,6.19,0,0,0-2.68-2.68,9.23,9.23,0,0,0-4.39-.95H156.58V51.84h5.8V43.59H168l4,8.25h6.44l-4.75-9.33A6.76,6.76,0,0,0,176.32,40ZM170.76,38a2.52,2.52,0,0,1-2,.77h-6.39V33.18h6.39a3.26,3.26,0,0,1,1.52.32,2.28,2.28,0,0,1,.5.36,2.55,2.55,0,0,1,.37.52,3.4,3.4,0,0,1,.31,1.5A3.11,3.11,0,0,1,170.76,38Z"/>
        <rect class="cls-1" x="180.68" y="28.3" width="5.8" height="23.54"/>
        <polygon class="cls-1" points="196.46 42.26 208.09 42.26 208.09 37.38 196.46 37.38 196.46 33.22 209.6 33.22 209.6 28.3 190.62 28.3 190.62 51.84 209.8 51.84 209.8 46.9 196.46 46.9 196.46 42.26"/>
        <path class="cls-1" d="M228.4,41.76l-.29-.41a7.81,7.81,0,0,0-.5-.65l-9.24-12.4h-5.19V51.84h5.54V38.28c.2.31.4.6.59.87l9.45,12.69h5.18V28.3H228.4Z"/>
        <path class="cls-1" d="M254.05,28.93a13.63,13.63,0,0,0-5.39-1c-3.65,0-6.52,1-8.55,3s-3.05,5.09-3.05,9.15a15.26,15.26,0,0,0,1.35,6.84,8.73,8.73,0,0,0,4,4,15.51,15.51,0,0,0,11.7.28,8.38,8.38,0,0,0,3.81-3.12,9.4,9.4,0,0,0,1.38-5.23v-.44h-5.64v.44a4.66,4.66,0,0,1-.6,2.45,3.74,3.74,0,0,1-1.69,1.47,6.33,6.33,0,0,1-2.69.53,6.14,6.14,0,0,1-3.22-.75,4.48,4.48,0,0,1-1.82-2.2,10.23,10.23,0,0,1-.62-3.81v-1a10.12,10.12,0,0,1,.61-3.75,4.47,4.47,0,0,1,1.83-2.21,6.34,6.34,0,0,1,3.26-.76,5.75,5.75,0,0,1,2.53.53,3.76,3.76,0,0,1,1.63,1.5,4.83,4.83,0,0,1,.58,2.45v.44h5.84V37.3a9.13,9.13,0,0,0-1.42-5.23A8.63,8.63,0,0,0,254.05,28.93Z"/>
        <polygon class="cls-1" points="268.12 46.9 268.12 42.26 279.75 42.26 279.75 37.38 268.12 37.38 268.12 33.22 281.27 33.22 281.27 28.3 262.29 28.3 262.29 51.84 281.46 51.84 281.46 46.9 268.12 46.9"/>
        <path class="cls-1" d="M42.39,23.15c-1,1-18.64,18.29-18.88,18.51l.08-4.85c3.48-3.45,7.36-7,10.85-10.4,2.24-2.21,4.45-4.43,6.67-6.64,2.65-2.63,7.19-7.22,9.82-9.86,0-1.48,0-9.7,0-9.91H0V5.82c10.25,0,21.51,0,31.73,0L16.81,20.47c0,4.12,0,13,0,13.87C11.62,39.44,5.88,45.12.71,50.24c-.21.2-.38.43-.66.75H9.44c2.06-2.06,7.18-7,7.42-7.22,0,2.28,0,5.1,0,7.22H50.93v-6c-6.91,0-15.29,0-22.34,0,.35-.32,15.88-15.52,22.4-21.91C50.64,23.07,43.55,23.1,42.39,23.15Zm-18.87-.42.48-.47c4.7-4.64,16.15-15.9,16.87-16.6h1.6c0,1.56,0,3.35,0,3.35S29.85,21.49,23.77,27.48c-.06.06-.13.1-.28.22C23.49,26.06,23.47,24.27,23.52,22.73Z"/>
      </g>
    </g>
  </g>
</svg>

